<svg xmlns="http://www.w3.org/2000/svg" viewBox="0 0 620 160" role="img" aria-labelledby="title description">
  <title id="title">Foscen wordmark</title>
  <desc id="description">The Foscen scene-and-focus symbol followed by the Foscen name.</desc>
  <path fill-rule="evenodd" d="M54 28H106A26 26 0 0 1 132 54V106A26 26 0 0 1 106 132H54A26 26 0 0 1 28 106V54A26 26 0 0 1 54 28ZM72 62H88A10 10 0 0 1 98 72V88A10 10 0 0 1 88 98H72A10 10 0 0 1 62 88V72A10 10 0 0 1 72 62Z" fill="#1C1C1E" />
  <text x="166" y="108" fill="#1C1C1E" font-family="Inter, -apple-system, BlinkMacSystemFont, 'Segoe UI', sans-serif" font-size="76" font-weight="680" letter-spacing="-3">Foscen</text>
</svg>
